<svg xmlns="http://www.w3.org/2000/svg" width="1280" height="640" viewBox="0 0 1280 640" role="img" aria-labelledby="title description">
  <title id="title">ResizeLint social preview</title>
  <desc id="description">An editorial ResizeLint preview with a large adaptive mark, a clear Swift static-analysis message, and a compact RL001 diagnostic.</desc>
  <defs>
    <linearGradient id="background" x1="40" y1="20" x2="1240" y2="620" gradientUnits="userSpaceOnUse">
      <stop stop-color="#0A1220"/>
      <stop offset=".58" stop-color="#050912"/>
      <stop offset="1" stop-color="#020409"/>
    </linearGradient>
    <radialGradient id="halo" cx="0" cy="0" r="1" gradientTransform="translate(1008 266) rotate(128) scale(530 480)" gradientUnits="userSpaceOnUse">
      <stop stop-color="#183968" stop-opacity=".22"/>
      <stop offset="1" stop-color="#183968" stop-opacity="0"/>
    </radialGradient>
  </defs>

  <rect width="1280" height="640" fill="url(#background)"/>
  <rect width="1280" height="640" fill="url(#halo)"/>
  <path d="M720 64v512" stroke="#252C39"/>

  <g transform="translate(78 61) scale(.32)" fill="none" stroke="#F6F1E6" stroke-linecap="round" stroke-linejoin="round" stroke-width="17">
    <path d="M49 157V69c0-25 18-41 44-41h37c30 0 50 18 50 45 0 25-19 43-45 43h-17l55 49"/>
    <path d="M50 104l55 57H65c-20 0-33-13-33-33v-16c0-9 7-16 16-16"/>
  </g>
  <text x="157" y="113" fill="#F6F1E6" font-family="Avenir Next, Avenir, Helvetica Neue, Helvetica, Arial, sans-serif" font-size="35" font-weight="500" letter-spacing="-1.2">ResizeLint</text>

  <text x="80" y="216" fill="#728097" font-family="ui-monospace, SFMono-Regular, Menlo, Monaco, Consolas, monospace" font-size="14" font-weight="700" letter-spacing="2.4">STATIC ANALYSIS FOR SWIFT</text>
  <text x="78" y="293" fill="#F5F2EA" font-family="Avenir Next, Avenir, Helvetica Neue, Helvetica, Arial, sans-serif" font-size="58" font-weight="600" letter-spacing="-2.4">Every window size.</text>
  <text x="80" y="344" fill="#F5F2EA" font-family="Avenir Next, Avenir, Helvetica Neue, Helvetica, Arial, sans-serif" font-size="58" font-weight="600" letter-spacing="-2.4">One reliable check.</text>

  <text x="82" y="408" fill="#9AA6B8" font-family="Avenir Next, Avenir, Helvetica Neue, Helvetica, Arial, sans-serif" font-size="22">Catch device-shaped assumptions before runtime QA.</text>

  <path d="M80 489h568" stroke="#29313E"/>
  <g font-family="ui-monospace, SFMono-Regular, Menlo, Monaco, Consolas, monospace" font-size="13" letter-spacing="1.5">
    <text x="80" y="535" fill="#8D99AB">LOCAL</text>
    <text x="181" y="535" fill="#8D99AB">DETERMINISTIC</text>
    <text x="350" y="535" fill="#8D99AB">NO SOURCE UPLOAD</text>
  </g>

  <g transform="translate(810.5294118 105) scale(1.764705882)" fill="none" stroke="#F6F1E6" stroke-linecap="round" stroke-linejoin="round" stroke-width="17">
    <path d="M49 157V69c0-25 18-41 44-41h37c30 0 50 18 50 45 0 25-19 43-45 43h-17l55 49"/>
    <path d="M50 104l55 57H65c-20 0-33-13-33-33v-16c0-9 7-16 16-16"/>
  </g>

  <g font-family="ui-monospace, SFMono-Regular, Menlo, Monaco, Consolas, monospace">
    <text x="824" y="500" fill="#83B9FF" font-size="15" font-weight="700">RL001</text>
    <text x="895" y="500" fill="#78869A" font-size="14">GLOBAL GEOMETRY</text>
    <path d="M824 522h348" stroke="#29313E"/>
    <text x="824" y="557" fill="#B4BECC" font-size="15">UIScreen.main.bounds</text>
    <text x="1030" y="557" fill="#64D5A6" font-size="15">→ view bounds</text>
  </g>
</svg>
